<svg width="150" height="44" viewBox="0 0 150 44" fill="none" xmlns="http://www.w3.org/2000/svg">
<g clip-path="url(#clip0_13:30)">
<path d="M2.57442 1.79831L2.82503 0.0455364H7.15371L6.88031 1.79831H19.3196V5.48596H6.42467L4.8299 18.4838H8.29283V8.62731H17.4058V18.4838H20.0714V22.2853H17.2691V31.163L20.6182 30.9581V34.7596L17.2691 34.9645V43.1138H7.15371V35.5108L0.0455574 35.9206V32.1418L7.15371 31.7321V22.2853H0L2.11877 5.48596H0.0455574V1.79831H2.57442ZM28.6148 39.3806V26.5421H21.4383V22.7406H47.1598V26.5421H39.0037V39.3806H47.1598V43.1138H21.4383V39.3806H28.6148ZM21.5295 20.3277L38.0696 3.80149H21.9623V0H40.9857C45.7473 0 46.4308 4.14292 43.4007 6.62412L38.6163 11.0402L47.5015 20.3277H36.6798L32.7385 16.4124L28.4781 20.3277H21.5295Z" fill="white"/>
<path d="M50.6683 43.1138C51.6479 30.0704 51.9669 20.3505 51.9669 7.64855H56.1361C56.1361 20.5781 55.931 29.9794 54.8603 43.1138H50.6683ZM65.7275 0.0911054V1.47967H71.9016V5.19011H65.7275V43.1138H57.0929V5.19011H50.9417V1.47967H57.0929V0.0911054H65.7275ZM70.8308 7.64855C70.8308 20.2822 71.0358 30.0704 72.1066 43.1138H68.0513C66.9578 29.9794 66.7527 20.5781 66.7527 7.64855H70.8308ZM85.4116 0.0455864V4.14298C85.4116 13.4532 82.9055 18.0741 72.1977 18.0741V13.3849C75.7063 13.3849 76.1619 10.8354 76.1619 2.00322V4.99452e-05L85.4116 0.0455864ZM88.8973 39.3806L85.7533 24.2203H94.4335L98.3521 43.1138H72.7673L78.8958 18.5294H84.842L79.921 39.3806H88.8973ZM92.5881 1.84389C92.5881 9.85659 92.9526 13.4532 98.7166 13.4532V18.0058C88.8973 18.0058 87.5532 13.7491 87.5532 4.02915V-0.0682373H92.5881V1.84389Z" fill="white"/>
<path d="M121.385 5.44046H118.31V18.3245L121.385 17.5961V21.9211L118.31 22.6268V31.2541C118.31 39.2668 115.735 43.0683 106.44 43.0683H102.271V39.3123H106.827V25.3129L102.271 26.3372V21.9666L106.827 20.9423V5.44046H102.271V1.63899H106.827V0.0910645H118.218V1.63899H121.294L121.385 5.44046ZM121.659 39.0619C124.285 39.081 126.903 38.7674 129.45 38.1286C129.42 37.9096 129.42 37.6875 129.45 37.4685L127.354 14.432L121.704 14.7279V10.9264L126.99 10.676L126.056 0.0910645H137.151L138.039 10.0614L150.046 9.4468V13.2483L138.381 13.8629L140.044 32.0736C143.835 27.9029 145.825 22.4053 145.58 16.7766H149.909C149.909 26.36 146.4 33.0979 140.5 37.4002L140.659 38.7887H150.046V42.7951H136.08C134.293 43.0111 132.484 42.6353 130.931 41.7252C127.947 42.4433 124.888 42.8025 121.818 42.7951L121.659 39.0619ZM139.885 0.0910645H147.858L149.385 7.39811C143.074 7.39811 141.525 6.55584 140.864 3.52832L139.885 0.0910645Z" fill="white"/>
</g>
<defs>
<clipPath id="clip0_13:30">
<rect width="150" height="43.1138" fill="white"/>
</clipPath>
</defs>
</svg>
